<?xml version="1.0" encoding="utf-8"?>
<!-- Generator: Adobe Illustrator 16.0.0, SVG Export Plug-In . SVG Version: 6.00 Build 0)  -->
<!DOCTYPE svg PUBLIC "-//W3C//DTD SVG 1.1//EN" "http://www.w3.org/Graphics/SVG/1.1/DTD/svg11.dtd">
<svg version="1.1" id="Layer_1" xmlns="http://www.w3.org/2000/svg" xmlns:xlink="http://www.w3.org/1999/xlink" x="0px" y="0px"
	 width="348.882px" height="213.643px" viewBox="0 0 348.882 213.643" enable-background="new 0 0 348.882 213.643"
	 xml:space="preserve">
<g>
	<g>
		<path fill="#FFFFFF" d="M7.047,159.83v6.837H5.331v-15.193h1.716v6.75h8.768v-6.75h1.715v15.193h-1.715v-6.837H7.047z"/>
		<path fill="#FFFFFF" d="M39.129,162.056c-0.375,0.95-0.904,1.783-1.586,2.503c-0.678,0.729-1.494,1.306-2.451,1.73
			c-0.955,0.425-2.012,0.641-3.168,0.641c-1.16,0-2.212-0.209-3.16-0.631c-0.946-0.418-1.763-0.985-2.441-1.701
			c-0.681-0.721-1.205-1.549-1.574-2.499c-0.369-0.947-0.553-1.949-0.553-3.005c0-1.052,0.187-2.056,0.563-3.006
			c0.375-0.949,0.906-1.782,1.586-2.506c0.68-0.725,1.499-1.3,2.452-1.728c0.956-0.429,2.012-0.64,3.17-0.64
			c1.157,0,2.212,0.211,3.16,0.626c0.946,0.421,1.76,0.993,2.442,1.704c0.68,0.719,1.204,1.552,1.573,2.498
			c0.368,0.948,0.553,1.952,0.553,3.007C39.694,160.107,39.506,161.107,39.129,162.056z M37.467,156.639
			c-0.295-0.767-0.71-1.43-1.245-1.998c-0.535-0.561-1.169-1.011-1.901-1.346c-0.731-0.331-1.53-0.497-2.397-0.497
			c-0.87,0-1.67,0.166-2.401,0.489c-0.729,0.329-1.355,0.771-1.878,1.335c-0.52,0.566-0.927,1.223-1.224,1.987
			c-0.298,0.76-0.446,1.571-0.446,2.44c0,0.864,0.148,1.683,0.446,2.453c0.296,0.77,0.71,1.433,1.247,1.997
			c0.535,0.562,1.168,1.011,1.898,1.349c0.732,0.332,1.532,0.493,2.4,0.493c0.869,0,1.669-0.161,2.399-0.484
			c0.73-0.328,1.357-0.774,1.877-1.335c0.521-0.566,0.929-1.226,1.224-1.989c0.298-0.757,0.447-1.575,0.447-2.439
			C37.914,158.224,37.765,157.406,37.467,156.639z"/>
		<path fill="#FFFFFF" d="M51.047,166.667h-1.716v-13.608h-5.1v-1.585h11.917v1.585h-5.101V166.667z"/>
		<path fill="#FFFFFF" d="M73.404,153.036h-9.27v5.188h8.293v1.56h-8.293v5.325h9.378v1.559H62.42v-15.193h10.984V153.036z"/>
		<path fill="#FFFFFF" d="M80.004,151.474h1.714v13.61h8.552v1.583H80.004V151.474z"/>
		<path fill="#FFFFFF" d="M120.184,166.667h-1.845l-1.78-4.015h-8.27l-1.802,4.015h-1.758l6.925-15.304h1.607L120.184,166.667z
			 M112.434,153.387l-3.471,7.748h6.924L112.434,153.387z"/>
		<path fill="#FFFFFF" d="M137.399,151.474h1.67v15.193h-1.368l-9.811-12.456v12.456h-1.671v-15.193h1.605l9.574,12.178V151.474z"/>
		<path fill="#FFFFFF" d="M159.171,162.056c-0.392,0.932-0.945,1.743-1.662,2.42c-0.717,0.681-1.571,1.215-2.561,1.609
			c-0.991,0.393-2.081,0.582-3.268,0.582h-5.276v-15.193h5.276c1.187,0,2.276,0.191,3.268,0.572c0.99,0.388,1.844,0.918,2.561,1.6
			c0.717,0.678,1.27,1.482,1.662,2.407c0.391,0.926,0.585,1.925,0.585,2.997S159.562,161.123,159.171,162.056z M157.533,156.726
			c-0.298-0.737-0.719-1.38-1.261-1.919c-0.542-0.543-1.204-0.968-1.985-1.276c-0.782-0.317-1.65-0.472-2.606-0.472h-3.56v12.025
			h3.56c0.957,0,1.825-0.15,2.606-0.457c0.781-0.3,1.442-0.728,1.985-1.27c0.542-0.543,0.963-1.173,1.261-1.896
			c0.293-0.729,0.445-1.517,0.445-2.367C157.978,158.254,157.826,157.466,157.533,156.726z"/>
		<path fill="#FFFFFF" d="M186.434,166.667l-4.404-5.9h-4.344v5.9h-1.716v-15.193h6.536c0.834,0,1.593,0.109,2.267,0.322
			c0.676,0.22,1.245,0.526,1.728,0.926c0.479,0.396,0.847,0.881,1.109,1.437c0.258,0.555,0.386,1.176,0.386,1.854
			c0,0.64-0.101,1.209-0.3,1.707c-0.208,0.498-0.489,0.931-0.86,1.301c-0.369,0.373-0.805,0.677-1.311,0.925
			c-0.511,0.247-1.062,0.421-1.653,0.521l4.668,6.202H186.434z M185.255,153.858c-0.677-0.535-1.635-0.8-2.868-0.8h-4.701v6.187
			h4.676c0.568,0,1.092-0.075,1.567-0.215c0.479-0.149,0.895-0.355,1.244-0.625c0.347-0.266,0.617-0.596,0.813-0.991
			c0.199-0.393,0.296-0.836,0.296-1.326C186.282,155.128,185.941,154.382,185.255,153.858z"/>
		<path fill="#FFFFFF" d="M205.692,153.036h-9.271v5.188h8.29v1.56h-8.29v5.325h9.378v1.559h-11.094v-15.193h10.987V153.036z"/>
		<path fill="#FFFFFF" d="M213.788,156.232c0.112,0.288,0.325,0.559,0.625,0.796c0.305,0.237,0.725,0.455,1.26,0.651
			s1.224,0.384,2.064,0.557c1.691,0.371,2.938,0.894,3.743,1.563c0.799,0.665,1.204,1.591,1.204,2.755
			c0,0.658-0.128,1.252-0.384,1.787c-0.259,0.541-0.616,0.99-1.062,1.371c-0.453,0.375-0.997,0.666-1.639,0.87
			c-0.635,0.2-1.331,0.302-2.079,0.302c-1.217,0-2.327-0.196-3.333-0.586c-1.007-0.394-1.965-0.998-2.876-1.823l1.062-1.256
			c0.794,0.719,1.601,1.262,2.41,1.613c0.811,0.354,1.744,0.533,2.801,0.533c1.027,0,1.849-0.24,2.463-0.714
			c0.617-0.479,0.925-1.114,0.925-1.892c0-0.367-0.062-0.686-0.174-0.97c-0.12-0.281-0.322-0.539-0.614-0.771
			c-0.287-0.235-0.692-0.444-1.208-0.626c-0.514-0.197-1.174-0.375-1.968-0.55c-0.871-0.187-1.627-0.402-2.273-0.65
			c-0.646-0.246-1.178-0.544-1.6-0.895c-0.416-0.346-0.732-0.749-0.932-1.213c-0.203-0.465-0.308-1.016-0.308-1.651
			c0-0.612,0.125-1.171,0.369-1.677c0.246-0.506,0.594-0.943,1.043-1.316c0.446-0.366,0.977-0.658,1.584-0.87
			c0.608-0.208,1.274-0.313,1.995-0.313c1.118,0,2.089,0.15,2.921,0.459c0.831,0.304,1.643,0.767,2.423,1.388l-0.995,1.319
			c-0.716-0.575-1.428-0.995-2.145-1.259c-0.716-0.255-1.465-0.387-2.244-0.387c-0.494,0-0.938,0.062-1.337,0.194
			c-0.401,0.132-0.739,0.304-1.021,0.521c-0.281,0.218-0.497,0.478-0.646,0.781c-0.156,0.307-0.229,0.633-0.229,0.982
			C213.614,155.617,213.669,155.946,213.788,156.232z"/>
		<path fill="#FFFFFF" d="M231.086,151.474v15.193h-1.714v-15.193H231.086z"/>
		<path fill="#FFFFFF" d="M251.339,162.056c-0.391,0.932-0.943,1.743-1.664,2.42c-0.711,0.681-1.567,1.215-2.556,1.609
			c-0.994,0.393-2.083,0.582-3.266,0.582h-5.278v-15.193h5.278c1.183,0,2.271,0.191,3.266,0.572c0.988,0.388,1.845,0.918,2.556,1.6
			c0.721,0.678,1.273,1.482,1.664,2.407c0.392,0.926,0.586,1.925,0.586,2.997S251.73,161.123,251.339,162.056z M249.697,156.726
			c-0.294-0.737-0.712-1.38-1.252-1.919c-0.545-0.543-1.206-0.968-1.987-1.276c-0.783-0.317-1.653-0.472-2.604-0.472h-3.562v12.025
			h3.562c0.951,0,1.821-0.15,2.604-0.457c0.781-0.3,1.442-0.728,1.987-1.27c0.54-0.543,0.958-1.173,1.252-1.896
			c0.302-0.729,0.448-1.517,0.448-2.367C250.146,158.254,249.999,157.466,249.697,156.726z"/>
		<path fill="#FFFFFF" d="M269.575,153.036h-9.269v5.188h8.292v1.56h-8.292v5.325h9.375v1.559h-11.091v-15.193h10.984V153.036z"/>
		<path fill="#FFFFFF" d="M287.35,151.474h1.674v15.193h-1.371l-9.809-12.456v12.456h-1.671v-15.193h1.606l9.57,12.178V151.474z"/>
		<path fill="#FFFFFF" d="M308.154,165.357c-0.422,0.325-0.882,0.603-1.373,0.837c-0.492,0.229-1.021,0.413-1.588,0.54
			c-0.564,0.127-1.193,0.195-1.892,0.195c-1.096,0-2.109-0.203-3.032-0.605c-0.929-0.409-1.73-0.965-2.412-1.663
			c-0.685-0.703-1.213-1.53-1.595-2.481c-0.382-0.958-0.577-1.985-0.577-3.086c0-1.082,0.195-2.104,0.577-3.061
			c0.382-0.957,0.91-1.791,1.595-2.503c0.682-0.719,1.492-1.287,2.432-1.697c0.939-0.413,1.965-0.618,3.082-0.618
			c0.692,0,1.317,0.058,1.879,0.171c0.553,0.119,1.074,0.279,1.547,0.493c0.48,0.209,0.925,0.459,1.327,0.757
			c0.404,0.299,0.798,0.627,1.173,0.988l-1.173,1.26c-0.651-0.609-1.348-1.104-2.097-1.497c-0.743-0.393-1.637-0.589-2.68-0.589
			c-0.839,0-1.615,0.161-2.333,0.479c-0.714,0.318-1.336,0.758-1.866,1.321c-0.53,0.565-0.941,1.226-1.236,1.989
			c-0.297,0.758-0.442,1.583-0.442,2.463c0,0.884,0.146,1.708,0.442,2.476c0.295,0.768,0.706,1.431,1.236,1.997
			c0.53,0.561,1.152,1.007,1.866,1.335c0.718,0.323,1.494,0.484,2.333,0.484c1.043,0,1.939-0.188,2.693-0.57
			c0.752-0.388,1.488-0.924,2.213-1.62l1.129,1.106C308.991,164.662,308.581,165.032,308.154,165.357z"/>
		<path fill="#FFFFFF" d="M326.403,153.036h-9.271v5.188h8.295v1.56h-8.295v5.325h9.376v1.559h-11.087v-15.193h10.981V153.036z"/>
		<path fill="#FFFFFF" d="M334.499,156.232c0.117,0.288,0.321,0.559,0.631,0.796c0.303,0.237,0.723,0.455,1.257,0.651
			c0.536,0.196,1.222,0.384,2.063,0.557c1.692,0.371,2.942,0.894,3.745,1.563c0.801,0.665,1.202,1.591,1.202,2.755
			c0,0.658-0.128,1.252-0.385,1.787c-0.257,0.541-0.613,0.99-1.063,1.371c-0.451,0.375-0.995,0.666-1.633,0.87
			c-0.638,0.2-1.33,0.302-2.082,0.302c-1.221,0-2.329-0.196-3.335-0.586c-1.008-0.394-1.962-0.998-2.876-1.823l1.067-1.256
			c0.794,0.719,1.593,1.262,2.406,1.613c0.813,0.354,1.745,0.533,2.805,0.533c1.024,0,1.844-0.24,2.456-0.714
			c0.618-0.479,0.925-1.114,0.925-1.892c0-0.367-0.058-0.686-0.174-0.97c-0.116-0.281-0.317-0.539-0.606-0.771
			c-0.292-0.235-0.697-0.444-1.21-0.626c-0.516-0.197-1.17-0.375-1.972-0.55c-0.87-0.187-1.628-0.402-2.271-0.65
			c-0.646-0.246-1.181-0.544-1.604-0.895c-0.414-0.346-0.726-0.749-0.931-1.213c-0.203-0.465-0.308-1.016-0.308-1.651
			c0-0.612,0.125-1.171,0.37-1.677c0.247-0.506,0.594-0.943,1.042-1.316c0.45-0.366,0.978-0.658,1.585-0.87
			c0.608-0.208,1.277-0.313,2-0.313c1.114,0,2.086,0.15,2.919,0.459c0.831,0.304,1.638,0.767,2.417,1.388l-0.995,1.319
			c-0.713-0.575-1.422-0.995-2.142-1.259c-0.714-0.255-1.466-0.387-2.241-0.387c-0.496,0-0.939,0.062-1.34,0.194
			c-0.397,0.132-0.736,0.304-1.018,0.521c-0.285,0.218-0.499,0.478-0.65,0.781c-0.152,0.307-0.23,0.633-0.23,0.982
			C334.324,155.617,334.38,155.946,334.499,156.232z"/>
	</g>
	<g>
		<rect y="181.705" fill="#FFFFFF" width="348.882" height="0.676"/>
	</g>
	<g>
		<path fill="#FFFFFF" d="M5.811,198.174h8.746v1.58H7.311l-0.325,4.869c0.448-0.2,0.902-0.361,1.358-0.486
			c0.457-0.124,1.003-0.187,1.641-0.187c0.739,0,1.427,0.11,2.062,0.325c0.639,0.222,1.194,0.528,1.669,0.923
			c0.474,0.4,0.844,0.892,1.11,1.474c0.263,0.57,0.395,1.228,0.395,1.949c0,0.754-0.132,1.44-0.395,2.057
			c-0.266,0.611-0.636,1.144-1.11,1.581c-0.475,0.444-1.045,0.785-1.711,1.028c-0.665,0.237-1.396,0.355-2.195,0.355
			c-1.086,0-2.089-0.228-3.008-0.683c-0.922-0.462-1.729-1.034-2.424-1.731l1.131-1.232c0.666,0.644,1.357,1.157,2.075,1.53
			c0.716,0.361,1.467,0.551,2.248,0.551c0.538,0,1.035-0.081,1.489-0.25c0.458-0.166,0.845-0.402,1.163-0.704
			c0.318-0.31,0.569-0.661,0.751-1.076c0.179-0.414,0.271-0.868,0.271-1.362c0-0.475-0.092-0.91-0.271-1.302
			c-0.182-0.388-0.44-0.729-0.772-1.008c-0.333-0.285-0.732-0.505-1.195-0.662c-0.463-0.161-0.977-0.243-1.543-0.243
			c-0.653,0-1.234,0.087-1.749,0.25c-0.514,0.169-0.998,0.375-1.446,0.625l-1.151-0.767L5.811,198.174z"/>
		<path fill="#FFFFFF" d="M29.438,198.062h1.276v15.321h-1.715v-13.542l-2.871,0.895l-0.411-1.394L29.438,198.062z"/>
		<path fill="#FFFFFF" d="M44.057,198.174h8.745v1.58h-7.246l-0.326,4.869c0.45-0.2,0.901-0.361,1.359-0.486
			c0.456-0.124,1.001-0.187,1.641-0.187c0.738,0,1.426,0.11,2.064,0.325c0.637,0.222,1.192,0.528,1.667,0.923
			c0.473,0.4,0.843,0.892,1.109,1.474c0.264,0.57,0.395,1.228,0.395,1.949c0,0.754-0.13,1.44-0.395,2.057
			c-0.266,0.611-0.636,1.144-1.109,1.581c-0.475,0.444-1.045,0.785-1.711,1.028c-0.666,0.237-1.398,0.355-2.196,0.355
			c-1.085,0-2.089-0.228-3.008-0.683c-0.92-0.462-1.729-1.034-2.424-1.731l1.132-1.232c0.666,0.644,1.358,1.157,2.076,1.53
			c0.715,0.361,1.464,0.551,2.247,0.551c0.537,0,1.033-0.081,1.489-0.25c0.456-0.166,0.845-0.402,1.163-0.704
			c0.319-0.31,0.569-0.661,0.749-1.076c0.182-0.414,0.272-0.868,0.272-1.362c0-0.475-0.09-0.91-0.272-1.302
			c-0.18-0.388-0.438-0.729-0.771-1.008c-0.333-0.285-0.732-0.505-1.196-0.662c-0.463-0.161-0.978-0.243-1.542-0.243
			c-0.651,0-1.235,0.087-1.749,0.25c-0.513,0.169-0.998,0.375-1.446,0.625l-1.151-0.767L44.057,198.174z"/>
		<path fill="#FFFFFF" d="M91.797,198.174h1.672v15.21h-1.368l-9.82-12.471v12.471h-1.675v-15.21h1.607l9.583,12.186V198.174z"/>
		<path fill="#FFFFFF" d="M108.226,198.174v15.21h-1.718v-15.21H108.226z"/>
		<path fill="#FFFFFF" d="M132.453,198.174h1.673v15.21h-1.368l-9.822-12.471v12.471h-1.673v-15.21h1.608l9.582,12.186V198.174z"/>
		<path fill="#FFFFFF" d="M152.749,213.384h-1.715v-13.63h-5.108v-1.58h11.931v1.58h-5.107V213.384z"/>
		<path fill="#FFFFFF" d="M171.393,206.54v6.844h-1.713v-15.21h1.713v6.755h8.779v-6.755h1.721v15.21h-1.721v-6.844H171.393z"/>
		<path fill="#FFFFFF" d="M224.046,213.384h-1.845l-1.785-4.027h-8.277l-1.802,4.027h-1.764l6.934-15.321h1.611L224.046,213.384z
			 M216.29,200.084l-3.478,7.758h6.935L216.29,200.084z"/>
		<path fill="#FFFFFF" d="M244.91,198.174h1.845l-6.542,15.316h-1.52l-6.539-15.316h1.915l5.408,13.103L244.91,198.174z"/>
		<path fill="#FFFFFF" d="M269.333,199.734h-9.278v5.194h8.3v1.565h-8.3v5.32h9.385v1.569h-11.105v-15.21h10.999V199.734z"/>
		<path fill="#FFFFFF" d="M292.674,198.174h1.671v15.21h-1.366l-9.83-12.471v12.471h-1.67v-15.21h1.609l9.586,12.186V198.174z"/>
		<path fill="#FFFFFF" d="M319.657,206.884c0,1.113-0.151,2.097-0.452,2.937c-0.306,0.841-0.738,1.537-1.296,2.105
			c-0.555,0.561-1.223,0.989-1.999,1.273c-0.773,0.278-1.639,0.42-2.597,0.42c-0.938,0-1.801-0.142-2.571-0.42
			c-0.775-0.284-1.445-0.706-2.005-1.263c-0.557-0.561-0.984-1.251-1.29-2.073c-0.307-0.83-0.456-1.783-0.456-2.846v-8.844h1.714
			v8.735c0,1.645,0.412,2.915,1.229,3.799c0.821,0.881,1.961,1.323,3.426,1.323c1.402,0,2.517-0.418,3.344-1.254
			c0.824-0.846,1.237-2.096,1.237-3.76v-8.844h1.717V206.884z"/>
		<path fill="#FFFFFF" d="M343.3,199.734h-9.28v5.194h8.304v1.565h-8.304v5.32h9.389v1.569h-11.102v-15.21H343.3V199.734z"/>
	</g>
	<path fill="#FFFFFF" d="M312.369,0c-24.52,0-34.802,17.401-34.802,34.304v3.98h4.901c0.007-9.851,0.951-33.803,29.9-33.803
		c9.07,0,17.503,3.973,21.669,9.692c3.671,4.972,4.906,9.939,4.906,21.128c0,14.664-2.694,19.137-9.809,21.628
		c-6.868,2.483-17.412,4.718-25.758,6.46c-13.846,2.804-23.931,9.275-28.084,21.006c-12.128-26.913-59.253-18.146-59.253-52.579
		c0-15.91,10.28-27.336,27.451-27.336c19.124,0,27.072,12.175,27.072,29.578v4.226h4.898v-3.482C275.463,18.652,268.504,0,243.74,0
		c-9.569,0-17.853,2.485-24.717,9.946c-3.433,3.724-7.884,12.429-7.884,20.88c0,45.484,62.074,27.098,62.074,68.349
		c0,13.933-7.842,29.567-29.667,30.581c-23.519,1.094-31.291-8.251-33.038-26.137c0.167-1.542,0.25-3.104,0.25-4.688
		c0-44.99-62.036-27.582-62.036-67.114c0-15.91,10.905-27.336,28.069-27.336c19.132,0,27.518,12.175,27.518,29.578v4.226h4.901
		v-3.482c0-16.15-7.41-34.802-32.171-34.802c-9.573,0-18.516,2.485-25.381,9.946c-3.44,3.724-7.85,12.429-7.85,20.88
		c0,45.484,62.04,27.098,62.04,68.349c0,13.933-7.84,29.567-29.672,30.581c-23.51,1.094-31.286-8.251-33.04-26.137V30.826
		C143.138,9.698,129.195,0,112.512,0C87.997,0,78.279,17.401,78.279,34.304v3.98h4.9c0.017-9.851,0.389-33.803,29.333-33.803
		c9.081,0,16.65,3.973,20.815,9.692c3.68,4.972,4.91,9.939,4.91,21.128c0,14.664-2.708,19.137-9.817,21.628
		c-6.865,2.483-17.406,4.718-25.75,6.46C86.475,66.669,75.41,74.971,73.01,90.832c-3.356,15.972-8.718,38.925-31.854,38.925
		c-20.105,0-35.56-14.913-35.56-62.643c0-48.219,15.154-62.632,35.259-62.632c19.769,0,29.785,16.736,30.373,33.803h4.912
		C76.017,18.249,62.354,0,40.855,0C12.901,0,0.694,24.112,0.694,63.39c0,46.727,12.018,70.847,40.461,70.847
		c15.319,0,26.128-9.073,32.36-25.778c3.223,16.052,14.05,25.778,31.121,25.778c15.944,0,27.467-9.698,33.109-24.614l0.757-1.73
		l0.06,0.316c0.139,0.84,0.287,1.654,0.453,2.443l0.308,1.602l0.076,0.065c4.561,18.255,17.661,22.427,37.269,21.918
		c15.503-0.407,25.925-8.292,30.837-19.318c5.144,16.051,17.886,19.803,36.535,19.318c16.225-0.429,26.867-9.032,31.473-20.866
		c4.315,13.103,14.592,20.866,29.841,20.866c15.531,0,27.872-11.045,32.346-21.285c2.601-5.949,6.142-11.897,6.142-42.918V30.826
		C343.84,9.698,329.039,0,312.369,0 M105.375,129.756c-15.701,0-27.956-9.935-27.956-31.564c0-2.133,0.116-4.152,0.35-6.063
		c0.15-0.868,0.288-1.744,0.419-2.637l0,0c2.378-12.094,10.463-19.365,26.939-22.625c21.335-4.22,29.188-6.961,33.109-11.682v29.086
		C138.237,118.325,118.619,129.756,105.375,129.756 M338.944,84.271c0,34.055-19.619,45.486-32.863,45.486
		c-15.696,0-27.951-9.935-27.951-31.564c0-17.397,7.587-27.347,27.702-31.326c21.341-4.22,29.188-6.961,33.112-11.682V84.271z"/>
</g>
</svg>
