<?xml version="1.0" encoding="utf-8"?>
<!-- Generator: Adobe Illustrator 16.0.0, SVG Export Plug-In . SVG Version: 6.00 Build 0)  -->
<!DOCTYPE svg PUBLIC "-//W3C//DTD SVG 1.1//EN" "http://www.w3.org/Graphics/SVG/1.1/DTD/svg11.dtd">
<svg version="1.1" id="Layer_1" xmlns="http://www.w3.org/2000/svg" xmlns:xlink="http://www.w3.org/1999/xlink" x="0px" y="0px"
	 width="30px" height="30px" viewBox="0 0 30 30" enable-background="new 0 0 30 30" xml:space="preserve">
<g>
	<g>
		<path fill="#6D6E71" d="M28.494,8.937l-12.97-7.501L1.506,8.739v3.744c0.039,0.038,1.737,0.019,1.698,0.019v9.981H26.74
			l-0.02-9.981h1.766L28.494,8.937z M23.402,19.215c0.012-0.01-16.882,0-16.862,0l-0.02-9.25c2.924-1.621,5.963-3.237,9.004-4.741
			c2.646,1.582,5.41,2.964,7.897,4.662L23.402,19.215z"/>
		<polygon fill="#6D6E71" points="19.414,17.393 10.51,17.393 10.51,14.231 19.436,14.231 		"/>
		<rect x="10.51" y="10.133" fill="#6D6E71" width="8.904" height="3.16"/>
		<path fill="#6D6E71" d="M5.15,24.021H4.06v0.414h1v0.342h-1v0.51h1.139v0.348h-1.56v-1.957H5.15V24.021z"/>
		<path fill="#6D6E71" d="M6.385,25.1l0.208,0.188c-0.078,0.035-0.162,0.053-0.233,0.053c-0.231,0-0.558-0.137-0.558-0.684
			c0-0.545,0.327-0.682,0.558-0.682c0.233,0,0.559,0.137,0.559,0.682c0,0.18-0.037,0.32-0.095,0.418l-0.218-0.191L6.385,25.1z
			 M7.356,25.553L7.132,25.35c0.126-0.152,0.214-0.373,0.214-0.693c0-0.914-0.714-1.027-0.987-1.027
			c-0.272,0-0.987,0.113-0.987,1.027c0,0.916,0.715,1.029,0.987,1.029c0.121,0,0.333-0.023,0.527-0.133l0.243,0.223L7.356,25.553z"
			/>
		<path fill="#6D6E71" d="M9.253,24.949c0,0.514-0.327,0.736-0.844,0.736c-0.189,0-0.47-0.047-0.653-0.236
			c-0.111-0.123-0.154-0.279-0.16-0.477v-1.295h0.438v1.268c0,0.271,0.164,0.395,0.365,0.395c0.296,0,0.414-0.137,0.414-0.375
			v-1.287h0.439V24.949z"/>
		<path fill="#6D6E71" d="M10.403,24.119h0.005l0.255,0.773H10.14L10.403,24.119z M10.025,25.232h0.758l0.132,0.402h0.465
			l-0.722-1.957h-0.495l-0.733,1.957h0.452L10.025,25.232z"/>
		<path fill="#6D6E71" d="M12.001,25.279h1.022v0.355h-1.45v-1.957h0.428V25.279z"/>
		<path fill="#6D6E71" d="M14.365,24.758v0.877h-0.43v-1.957h0.43v0.74h0.801v-0.74h0.43v1.957h-0.43v-0.877H14.365z"/>
		<path fill="#6D6E71" d="M16.27,24.656c0-0.545,0.326-0.682,0.56-0.682c0.231,0,0.559,0.137,0.559,0.682
			c0,0.547-0.327,0.684-0.559,0.684C16.596,25.34,16.27,25.203,16.27,24.656z M15.842,24.656c0,0.916,0.717,1.029,0.987,1.029
			s0.987-0.113,0.987-1.029c0-0.914-0.717-1.027-0.987-1.027S15.842,23.742,15.842,24.656z"/>
		<path fill="#6D6E71" d="M19.722,24.949c0,0.514-0.327,0.736-0.845,0.736c-0.188,0-0.47-0.047-0.651-0.236
			c-0.112-0.123-0.155-0.279-0.161-0.477v-1.295h0.438v1.268c0,0.271,0.167,0.395,0.365,0.395c0.295,0,0.416-0.137,0.416-0.375
			v-1.287h0.438V24.949z"/>
		<path fill="#6D6E71" d="M20.366,25.031c0.002,0.107,0.059,0.311,0.435,0.311c0.203,0,0.428-0.043,0.428-0.248
			c0-0.152-0.153-0.195-0.373-0.242l-0.221-0.053c-0.332-0.068-0.652-0.143-0.652-0.566c0-0.219,0.123-0.604,0.79-0.604
			c0.63,0,0.8,0.393,0.802,0.631H21.16c-0.011-0.088-0.046-0.291-0.419-0.291c-0.164,0-0.358,0.057-0.358,0.232
			c0,0.152,0.133,0.184,0.218,0.203l0.503,0.115c0.28,0.066,0.538,0.172,0.538,0.523c0,0.588-0.629,0.643-0.81,0.643
			c-0.752,0-0.88-0.414-0.88-0.654H20.366z"/>
		<path fill="#6D6E71" d="M22.277,25.635h-0.429v-1.957h0.429V25.635z"/>
		<path fill="#6D6E71" d="M23.851,23.678h0.4v1.957H23.82l-0.838-1.396h-0.007v1.396h-0.4v-1.957h0.453l0.816,1.361h0.006V23.678z"
			/>
		<path fill="#6D6E71" d="M25.542,24.578H26.4v1.057h-0.286l-0.044-0.25c-0.107,0.121-0.264,0.301-0.64,0.301
			c-0.494,0-0.942-0.34-0.942-1.025c0-0.531,0.312-1.031,1.002-1.031c0.63,0,0.878,0.389,0.901,0.656h-0.43
			c0-0.072-0.147-0.316-0.447-0.316c-0.308,0-0.588,0.197-0.588,0.695c0,0.533,0.304,0.676,0.597,0.676
			c0.094,0,0.408-0.035,0.496-0.434h-0.478V24.578z"/>
		<path fill="#6D6E71" d="M3.976,27.539c0-0.545,0.327-0.682,0.559-0.682c0.233,0,0.558,0.137,0.558,0.682s-0.325,0.684-0.558,0.684
			C4.302,28.223,3.976,28.084,3.976,27.539z M3.547,27.539c0,0.916,0.716,1.025,0.987,1.025c0.272,0,0.988-0.109,0.988-1.025
			s-0.715-1.027-0.988-1.027C4.263,26.512,3.547,26.623,3.547,27.539z"/>
		<path fill="#6D6E71" d="M6.538,27.469V26.9h0.339c0.265,0,0.376,0.078,0.376,0.268c0,0.088,0,0.301-0.32,0.301H6.538z
			 M6.538,27.807h0.491c0.551,0,0.655-0.441,0.655-0.623c0-0.379-0.241-0.623-0.638-0.623H6.11v1.957h0.428V27.807z"/>
		<path fill="#6D6E71" d="M8.689,27.469V26.9h0.34c0.265,0,0.377,0.078,0.377,0.268c0,0.088,0,0.301-0.32,0.301H8.689z
			 M8.689,27.807h0.49c0.553,0,0.655-0.441,0.655-0.623c0-0.379-0.241-0.623-0.637-0.623H8.26v1.957h0.429V27.807z"/>
		<path fill="#6D6E71" d="M10.749,27.539c0-0.545,0.326-0.682,0.559-0.682c0.232,0,0.56,0.137,0.56,0.682s-0.328,0.684-0.56,0.684
			C11.075,28.223,10.749,28.084,10.749,27.539z M10.318,27.539c0,0.916,0.716,1.025,0.989,1.025c0.271,0,0.987-0.109,0.987-1.025
			s-0.716-1.027-0.987-1.027C11.035,26.512,10.318,26.623,10.318,27.539z"/>
		<path fill="#6D6E71" d="M13.302,27.424V26.9h0.534c0.252,0,0.301,0.152,0.301,0.252c0,0.197-0.108,0.271-0.332,0.271H13.302z
			 M12.881,28.518h0.42V27.75h0.443c0.316,0,0.334,0.104,0.334,0.369c0,0.203,0.017,0.305,0.045,0.398h0.474v-0.057
			c-0.091-0.029-0.091-0.1-0.091-0.389c0-0.361-0.093-0.424-0.26-0.494c0.205-0.061,0.318-0.248,0.318-0.463
			c0-0.168-0.099-0.555-0.646-0.555h-1.038V28.518z"/>
		<path fill="#6D6E71" d="M16.06,28.518h-0.428v-1.613h-0.621v-0.344h1.671v0.344H16.06V28.518z"/>
		<path fill="#6D6E71" d="M18.824,27.832c0,0.514-0.326,0.732-0.843,0.732c-0.189,0-0.469-0.045-0.653-0.234
			c-0.109-0.121-0.154-0.279-0.158-0.477v-1.293h0.438v1.268c0,0.271,0.168,0.395,0.365,0.395c0.296,0,0.416-0.139,0.416-0.375
			v-1.287h0.436V27.832z"/>
		<path fill="#6D6E71" d="M20.742,26.561h0.403v1.957h-0.432l-0.838-1.395h-0.007v1.395h-0.4v-1.957h0.453l0.816,1.361h0.004V26.561
			z"/>
		<path fill="#6D6E71" d="M22.19,28.518h-0.427v-1.957h0.427V28.518z"/>
		<path fill="#6D6E71" d="M23.71,28.518h-0.432v-1.613h-0.62v-0.344h1.67v0.344H23.71V28.518z"/>
		<path fill="#6D6E71" d="M25.793,28.518h-0.431v-0.742l-0.71-1.215h0.507l0.427,0.852l0.407-0.852h0.485l-0.686,1.225V28.518z"/>
	</g>
</g>
</svg>
