<?xml version="1.0" encoding="utf-8"?>
<!-- Generator: Adobe Illustrator 16.0.0, SVG Export Plug-In . SVG Version: 6.00 Build 0)  -->
<!DOCTYPE svg PUBLIC "-//W3C//DTD SVG 1.1//EN" "http://www.w3.org/Graphics/SVG/1.1/DTD/svg11.dtd">
<svg version="1.1" id="Layer_1" xmlns="http://www.w3.org/2000/svg" xmlns:xlink="http://www.w3.org/1999/xlink" x="0px" y="0px"
	 width="120px" height="24px" viewBox="0 0 120 24" enable-background="new 0 0 120 24" xml:space="preserve">
<path fill="#9D9FA1" stroke="#EEEEEE" stroke-width="0.5" stroke-miterlimit="10" d="M17.384,17.705
	c0,0.357-0.125,0.661-0.375,0.911l-1.821,1.821c-0.25,0.25-0.554,0.375-0.911,0.375s-0.661-0.125-0.911-0.375l-3.938-3.938
	L5.49,20.438c-0.25,0.25-0.554,0.375-0.911,0.375s-0.661-0.125-0.911-0.375l-1.821-1.82c-0.25-0.25-0.375-0.555-0.375-0.911
	s0.125-0.661,0.375-0.911l3.938-3.938L1.847,8.918c-0.25-0.25-0.375-0.554-0.375-0.911c0-0.357,0.125-0.661,0.375-0.911l1.821-1.821
	C3.918,5.025,4.222,4.9,4.579,4.9S5.24,5.025,5.49,5.275l3.938,3.938l3.938-3.938c0.25-0.25,0.554-0.375,0.911-0.375
	s0.661,0.125,0.911,0.375l1.821,1.821c0.25,0.25,0.375,0.554,0.375,0.911c0,0.357-0.125,0.661-0.375,0.911l-3.938,3.938l3.938,3.938
	C17.259,17.044,17.384,17.348,17.384,17.705z M57.938,21.066l-8.732-8.718c-0.331-0.331-0.496-0.735-0.496-1.212
	c0-0.477,0.166-0.881,0.496-1.212l8.732-8.719c0.331-0.331,0.735-0.496,1.212-0.496c0.478,0,0.881,0.166,1.212,0.496l1.004,1.004
	c0.331,0.331,0.495,0.735,0.495,1.212c0,0.478-0.164,0.881-0.495,1.212l-6.509,6.509l6.509,6.497
	c0.331,0.34,0.495,0.745,0.495,1.219s-0.164,0.875-0.495,1.205l-1.004,1.004c-0.331,0.33-0.734,0.496-1.212,0.496
	C58.673,21.562,58.269,21.396,57.938,21.066L57.938,21.066z M110.719,11.143c0,0.464-0.164,0.87-0.496,1.219l-8.73,8.719
	c-0.331,0.331-0.732,0.496-1.205,0.496s-0.874-0.165-1.205-0.496l-1.02-1.004c-0.33-0.349-0.496-0.755-0.496-1.22
	c0-0.474,0.166-0.875,0.496-1.205l6.511-6.508l-6.511-6.496c-0.33-0.348-0.496-0.754-0.496-1.219c0-0.473,0.166-0.875,0.496-1.205
	l1.02-1.004c0.32-0.339,0.725-0.509,1.205-0.509s0.884,0.17,1.205,0.509l8.73,8.719C110.555,10.27,110.719,10.671,110.719,11.143
	L110.719,11.143z"/>
</svg>
