<?xml version="1.0" encoding="utf-8"?>
<!-- Generator: Adobe Illustrator 16.0.0, SVG Export Plug-In . SVG Version: 6.00 Build 0)  -->
<!DOCTYPE svg PUBLIC "-//W3C//DTD SVG 1.1//EN" "http://www.w3.org/Graphics/SVG/1.1/DTD/svg11.dtd">
<svg version="1.1" id="Layer_1" xmlns="http://www.w3.org/2000/svg" xmlns:xlink="http://www.w3.org/1999/xlink" x="0px" y="0px"
	 width="50px" height="50px" viewBox="0 0 50 50" enable-background="new 0 0 50 50" xml:space="preserve">
<g>
	<g>
		
			<rect x="9.917" y="26.636" transform="matrix(0.7069 0.7073 -0.7073 0.7069 30.3363 2.5067)" fill="#6D6E71" width="4.454" height="22.441"/>
		<g>
			<path fill="#6D6E71" d="M20.751,29.25c-6.081-6.08-6.081-15.974,0-22.055c6.079-6.081,15.974-6.081,22.054,0
				s6.08,15.975,0,22.055S26.83,35.33,20.751,29.25z M40.244,9.755c-4.668-4.668-12.266-4.669-16.934,0
				c-4.669,4.669-4.669,12.265,0,16.935c4.668,4.67,12.266,4.67,16.934,0C44.912,22.02,44.912,14.424,40.244,9.755z"/>
		</g>
	</g>
	<g>
		<rect x="29.91" y="11.013" fill="#6D6E71" width="3.734" height="14.418"/>
		<rect x="24.568" y="16.356" fill="#6D6E71" width="14.418" height="3.732"/>
	</g>
</g>
</svg>
