<?xml version="1.0" encoding="utf-8"?>
<!-- Generator: Adobe Illustrator 16.0.0, SVG Export Plug-In . SVG Version: 6.00 Build 0)  -->
<!DOCTYPE svg PUBLIC "-//W3C//DTD SVG 1.1//EN" "http://www.w3.org/Graphics/SVG/1.1/DTD/svg11.dtd">
<svg version="1.1" id="Layer_1" xmlns="http://www.w3.org/2000/svg" xmlns:xlink="http://www.w3.org/1999/xlink" x="0px" y="0px"
	 width="171.201px" height="83.282px" viewBox="0 0 171.201 83.282" enable-background="new 0 0 171.201 83.282"
	 xml:space="preserve">
<g>
	<g>
		<path fill="#6D6E71" d="M4.463,78.88v3.358h-0.84V74.78h0.841v3.312h4.306V74.78h0.842v7.459H8.771V78.88H4.463z"/>
		<path fill="#6D6E71" d="M20.218,79.975c-0.186,0.465-0.444,0.877-0.779,1.231c-0.333,0.354-0.734,0.636-1.204,0.846
			c-0.469,0.209-0.987,0.314-1.554,0.314c-0.57,0-1.087-0.102-1.552-0.311c-0.466-0.206-0.866-0.484-1.2-0.835
			c-0.333-0.352-0.592-0.761-0.774-1.224c-0.18-0.468-0.271-0.958-0.271-1.477s0.091-1.01,0.276-1.477
			c0.186-0.464,0.445-0.876,0.779-1.229c0.334-0.358,0.735-0.638,1.205-0.847c0.469-0.211,0.986-0.316,1.555-0.316
			s1.085,0.103,1.552,0.309c0.465,0.207,0.864,0.489,1.198,0.841c0.334,0.349,0.592,0.755,0.774,1.222
			c0.181,0.468,0.271,0.958,0.271,1.475C20.494,79.019,20.404,79.509,20.218,79.975z M19.402,77.316
			c-0.146-0.377-0.349-0.703-0.612-0.981c-0.264-0.274-0.574-0.498-0.935-0.658c-0.356-0.165-0.751-0.245-1.176-0.245
			c-0.428,0-0.821,0.08-1.18,0.238s-0.665,0.379-0.922,0.654c-0.256,0.276-0.456,0.603-0.602,0.975
			c-0.146,0.374-0.219,0.773-0.219,1.199c0,0.429,0.072,0.828,0.219,1.207c0.147,0.377,0.349,0.702,0.613,0.98
			c0.262,0.275,0.574,0.497,0.933,0.661c0.36,0.159,0.752,0.243,1.177,0.243c0.427,0,0.819-0.079,1.178-0.239
			c0.359-0.157,0.667-0.377,0.923-0.655c0.256-0.277,0.457-0.602,0.603-0.974s0.218-0.775,0.218-1.2
			C19.62,78.092,19.548,77.691,19.402,77.316z"/>
		<path fill="#6D6E71" d="M26.069,82.239h-0.842v-6.681h-2.504v-0.78h5.85v0.78h-2.503V82.239z"/>
		<path fill="#6D6E71" d="M37.045,75.548h-4.551v2.546h4.072v0.768h-4.072v2.61H37.1v0.768h-5.447v-7.46h5.393L37.045,75.548
			L37.045,75.548z"/>
		<path fill="#6D6E71" d="M40.285,74.78h0.842v6.683h4.199v0.777h-5.042L40.285,74.78L40.285,74.78z"/>
		<path fill="#6D6E71" d="M60.012,82.239h-0.906l-0.873-1.972h-4.062l-0.884,1.972h-0.863l3.4-7.514h0.79L60.012,82.239z
			 M56.208,75.717l-1.706,3.806h3.4L56.208,75.717z"/>
		<path fill="#6D6E71" d="M68.464,74.78h0.821v7.459h-0.672l-4.817-6.115v6.115h-0.822V74.78h0.788l4.7,5.978L68.464,74.78
			L68.464,74.78z"/>
		<path fill="#6D6E71" d="M79.152,79.975c-0.192,0.459-0.463,0.855-0.815,1.188c-0.351,0.332-0.771,0.595-1.257,0.786
			c-0.488,0.192-1.021,0.289-1.604,0.289h-2.59V74.78h2.59c0.583,0,1.117,0.094,1.604,0.279c0.486,0.188,0.907,0.449,1.257,0.786
			c0.353,0.333,0.624,0.728,0.815,1.182c0.192,0.456,0.288,0.946,0.288,1.469C79.44,79.026,79.345,79.519,79.152,79.975z
			 M78.349,77.357c-0.146-0.36-0.35-0.676-0.617-0.941c-0.268-0.266-0.593-0.478-0.976-0.629c-0.383-0.154-0.812-0.229-1.278-0.229
			h-1.749v5.902h1.749c0.468,0,0.896-0.074,1.278-0.226c0.383-0.147,0.709-0.357,0.976-0.621c0.266-0.265,0.471-0.579,0.617-0.933
			c0.145-0.357,0.219-0.741,0.219-1.162C78.567,78.109,78.493,77.72,78.349,77.357z"/>
		<path fill="#6D6E71" d="M92.537,82.239l-2.163-2.899h-2.131v2.899h-0.841V74.78h3.204c0.415,0,0.785,0.053,1.116,0.157
			c0.328,0.106,0.614,0.259,0.845,0.455c0.235,0.196,0.417,0.429,0.545,0.702c0.128,0.276,0.192,0.581,0.192,0.914
			c0,0.313-0.05,0.595-0.148,0.838c-0.102,0.246-0.24,0.458-0.422,0.638c-0.18,0.184-0.395,0.335-0.645,0.454
			c-0.25,0.121-0.518,0.208-0.81,0.257l2.294,3.045L92.537,82.239L92.537,82.239z M91.962,75.948
			c-0.335-0.262-0.802-0.39-1.412-0.39h-2.307v3.036h2.296c0.277,0,0.534-0.035,0.769-0.106c0.237-0.071,0.44-0.172,0.61-0.302
			c0.171-0.135,0.306-0.299,0.402-0.489c0.096-0.193,0.145-0.411,0.145-0.652C92.464,76.575,92.295,76.208,91.962,75.948z"/>
		<path fill="#6D6E71" d="M101.991,75.548h-4.552v2.546h4.07v0.768h-4.07v2.61h4.604v0.768h-5.446v-7.46h5.394L101.991,75.548
			L101.991,75.548z"/>
		<path fill="#6D6E71" d="M105.964,77.117c0.06,0.141,0.162,0.271,0.312,0.387c0.147,0.121,0.355,0.226,0.616,0.325
			c0.264,0.096,0.603,0.185,1.013,0.271c0.83,0.182,1.444,0.44,1.839,0.767c0.395,0.327,0.592,0.781,0.592,1.354
			c0,0.32-0.061,0.613-0.188,0.876c-0.126,0.265-0.301,0.487-0.523,0.674c-0.223,0.184-0.488,0.328-0.801,0.425
			c-0.314,0.104-0.653,0.15-1.023,0.15c-0.597,0-1.141-0.096-1.635-0.289c-0.496-0.193-0.964-0.489-1.413-0.893l0.521-0.617
			c0.39,0.354,0.787,0.619,1.182,0.795c0.397,0.169,0.856,0.261,1.376,0.261c0.506,0,0.906-0.117,1.21-0.353
			c0.302-0.235,0.452-0.546,0.452-0.929c0-0.178-0.026-0.335-0.084-0.473c-0.059-0.14-0.157-0.267-0.301-0.382
			c-0.145-0.109-0.341-0.216-0.594-0.308c-0.249-0.096-0.573-0.185-0.965-0.268c-0.429-0.095-0.799-0.201-1.115-0.318
			c-0.32-0.124-0.579-0.271-0.787-0.442c-0.206-0.167-0.358-0.368-0.457-0.594c-0.102-0.229-0.151-0.498-0.151-0.814
			c0-0.297,0.062-0.572,0.185-0.82c0.119-0.249,0.289-0.462,0.51-0.646c0.219-0.179,0.479-0.323,0.779-0.429
			c0.297-0.101,0.625-0.152,0.98-0.152c0.548,0,1.023,0.077,1.433,0.225c0.408,0.152,0.805,0.38,1.188,0.683l-0.489,0.648
			c-0.351-0.282-0.699-0.489-1.051-0.616c-0.352-0.129-0.718-0.19-1.102-0.19c-0.242,0-0.461,0.031-0.656,0.098
			c-0.196,0.063-0.363,0.148-0.501,0.255c-0.141,0.105-0.244,0.234-0.319,0.382c-0.073,0.15-0.112,0.309-0.112,0.484
			C105.882,76.811,105.909,76.976,105.964,77.117z"/>
		<path fill="#6D6E71" d="M114.461,74.78v7.459h-0.842V74.78H114.461z"/>
		<path fill="#6D6E71" d="M124.406,79.975c-0.192,0.459-0.464,0.855-0.817,1.188c-0.351,0.332-0.771,0.595-1.257,0.786
			c-0.487,0.192-1.021,0.289-1.602,0.289h-2.589V74.78h2.589c0.58,0,1.116,0.094,1.602,0.279c0.486,0.188,0.907,0.449,1.257,0.786
			c0.354,0.333,0.625,0.728,0.817,1.182c0.191,0.456,0.285,0.946,0.285,1.469C124.691,79.026,124.597,79.519,124.406,79.975z
			 M123.6,77.357c-0.146-0.36-0.353-0.676-0.619-0.941c-0.264-0.266-0.589-0.478-0.972-0.629c-0.387-0.154-0.812-0.229-1.28-0.229
			h-1.748v5.902h1.748c0.469,0,0.894-0.074,1.28-0.226c0.384-0.147,0.708-0.357,0.972-0.621c0.268-0.265,0.473-0.579,0.619-0.933
			c0.146-0.357,0.22-0.741,0.22-1.162C123.819,78.109,123.746,77.72,123.6,77.357z"/>
		<path fill="#6D6E71" d="M133.357,75.548h-4.552v2.546h4.07v0.768h-4.07v2.61h4.603v0.768h-5.443v-7.46h5.393V75.548
			L133.357,75.548z"/>
		<path fill="#6D6E71" d="M142.084,74.78h0.823v7.459h-0.674l-4.817-6.115v6.115h-0.821V74.78h0.789l4.697,5.978V74.78H142.084z"/>
		<path fill="#6D6E71" d="M152.298,81.595c-0.208,0.159-0.433,0.298-0.676,0.407c-0.24,0.115-0.501,0.203-0.776,0.267
			c-0.278,0.064-0.586,0.098-0.927,0.098c-0.541,0-1.04-0.1-1.492-0.3c-0.456-0.196-0.85-0.472-1.185-0.813
			c-0.334-0.343-0.593-0.75-0.782-1.221c-0.189-0.469-0.283-0.974-0.283-1.512c0-0.535,0.094-1.032,0.283-1.503
			c0.188-0.47,0.446-0.878,0.782-1.229c0.335-0.35,0.733-0.631,1.196-0.835c0.458-0.2,0.963-0.304,1.51-0.304
			c0.34,0,0.648,0.029,0.923,0.087c0.273,0.059,0.528,0.139,0.76,0.238c0.234,0.105,0.453,0.229,0.649,0.372
			c0.2,0.146,0.393,0.309,0.577,0.487l-0.577,0.616c-0.319-0.297-0.66-0.54-1.025-0.733c-0.366-0.19-0.806-0.288-1.319-0.288
			c-0.41,0-0.792,0.079-1.144,0.236c-0.35,0.15-0.659,0.37-0.915,0.646c-0.261,0.277-0.465,0.603-0.61,0.976
			c-0.146,0.371-0.219,0.779-0.219,1.209c0,0.435,0.071,0.837,0.219,1.219c0.146,0.372,0.35,0.7,0.61,0.979
			c0.258,0.276,0.563,0.493,0.915,0.654c0.352,0.156,0.733,0.238,1.144,0.238c0.512,0,0.953-0.094,1.324-0.282
			c0.366-0.188,0.729-0.449,1.084-0.794l0.554,0.545C152.709,81.255,152.511,81.435,152.298,81.595z"/>
		<path fill="#6D6E71" d="M161.256,75.548h-4.551v2.546h4.071v0.768h-4.071v2.61h4.604v0.768h-5.442v-7.46h5.39L161.256,75.548
			L161.256,75.548z"/>
		<path fill="#6D6E71" d="M165.229,77.117c0.062,0.141,0.162,0.271,0.312,0.387c0.148,0.121,0.355,0.226,0.617,0.325
			c0.264,0.096,0.602,0.185,1.012,0.271c0.83,0.182,1.445,0.44,1.84,0.767c0.394,0.327,0.592,0.781,0.592,1.354
			c0,0.32-0.064,0.613-0.19,0.876c-0.126,0.265-0.3,0.487-0.522,0.674c-0.223,0.184-0.49,0.328-0.8,0.425
			c-0.313,0.104-0.654,0.15-1.023,0.15c-0.596,0-1.144-0.096-1.637-0.289s-0.965-0.489-1.414-0.893l0.523-0.617
			c0.391,0.354,0.785,0.619,1.182,0.795c0.398,0.169,0.856,0.261,1.377,0.261c0.506,0,0.907-0.117,1.208-0.353
			c0.302-0.234,0.453-0.546,0.453-0.929c0-0.178-0.027-0.335-0.085-0.473c-0.058-0.14-0.156-0.267-0.297-0.382
			c-0.146-0.109-0.343-0.216-0.597-0.308c-0.249-0.096-0.573-0.185-0.962-0.268c-0.43-0.095-0.802-0.201-1.118-0.318
			c-0.319-0.124-0.58-0.271-0.787-0.442c-0.205-0.167-0.359-0.368-0.46-0.594c-0.1-0.229-0.147-0.498-0.147-0.814
			c0-0.297,0.06-0.572,0.181-0.82c0.118-0.249,0.291-0.462,0.512-0.646c0.221-0.179,0.479-0.323,0.778-0.429
			c0.297-0.101,0.625-0.152,0.98-0.152c0.548,0,1.023,0.077,1.433,0.225c0.406,0.152,0.805,0.38,1.189,0.683l-0.489,0.648
			c-0.35-0.282-0.7-0.489-1.052-0.616c-0.351-0.129-0.718-0.19-1.101-0.19c-0.241,0-0.46,0.031-0.658,0.098
			c-0.194,0.063-0.36,0.148-0.499,0.255c-0.141,0.105-0.247,0.234-0.32,0.382c-0.071,0.15-0.109,0.309-0.109,0.484
			C165.147,76.811,165.174,76.976,165.229,77.117z"/>
	</g>
	<path fill="#6D6E71" d="M154.368,0.412c-12.039,0-17.088,8.542-17.088,16.843v1.953h2.406c0.003-4.836,0.469-16.597,14.682-16.597
		c4.452,0,8.594,1.95,10.64,4.759c1.803,2.44,2.407,4.878,2.407,10.373c0,7.2-1.323,9.396-4.816,10.619
		c-3.371,1.218-8.55,2.317-12.646,3.172c-6.799,1.375-11.749,4.553-13.79,10.312c-5.954-13.212-29.092-8.908-29.092-25.814
		c0-7.812,5.049-13.421,13.478-13.421c9.389,0,13.292,5.979,13.292,14.522v2.074h2.403v-1.708
		c0.001-7.929-3.417-17.087-15.574-17.087c-4.698,0-8.763,1.22-12.134,4.883c-1.687,1.828-3.872,6.102-3.872,10.251
		c0,22.331,30.479,13.305,30.479,33.557c0,6.843-3.848,14.517-14.568,15.017c-11.544,0.536-15.36-4.053-16.217-12.832
		c0.082-0.76,0.121-1.525,0.121-2.304c0-22.087-30.457-13.541-30.457-32.949c0-7.812,5.354-13.422,13.78-13.422
		c9.394,0,13.511,5.979,13.511,14.522v2.072h2.407v-1.708c0-7.929-3.64-17.087-15.797-17.087c-4.699,0-9.09,1.22-12.46,4.883
		c-1.688,1.828-3.854,6.102-3.854,10.251c0,22.331,30.459,13.305,30.459,33.557c0,6.843-3.849,14.517-14.568,15.017
		c-11.542,0.536-15.36-4.053-16.22-12.832V15.546C71.281,5.173,64.436,0.412,56.246,0.412c-12.035,0-16.807,8.542-16.807,16.843
		v1.953h2.404c0.01-4.836,0.192-16.597,14.403-16.597c4.457,0,8.173,1.95,10.218,4.759c1.807,2.44,2.411,4.878,2.411,10.373
		c0,7.2-1.33,9.396-4.819,10.619c-3.37,1.218-8.546,2.317-12.644,3.172c-7.951,1.609-13.384,5.685-14.561,13.472
		c-1.647,7.844-4.279,19.112-15.639,19.112c-9.871,0-17.458-7.321-17.458-30.757C3.756,9.687,11.195,2.61,21.066,2.61
		c9.707,0,14.622,8.219,14.913,16.597h2.411C38.328,9.371,31.62,0.412,21.065,0.412C7.34,0.412,1.346,12.249,1.346,31.534
		c0,22.939,5.902,34.783,19.867,34.783c7.521,0,12.828-4.455,15.888-12.657c1.581,7.883,6.897,12.657,15.278,12.657
		c7.828,0,13.486-4.761,16.256-12.086l0.373-0.849l0.028,0.154c0.067,0.412,0.14,0.812,0.223,1.201l0.149,0.787l0.038,0.031
		c2.238,8.962,8.672,11.01,18.3,10.763c7.609-0.199,12.726-4.072,15.138-9.486c2.523,7.884,8.782,9.722,17.938,9.486
		c7.967-0.211,13.193-4.438,15.452-10.244c2.12,6.433,7.163,10.244,14.65,10.244c7.626,0,13.683-5.424,15.881-10.453
		c1.276-2.919,3.018-5.839,3.018-21.07v-19.25C169.82,5.173,162.554,0.412,154.368,0.412 M52.742,64.118
		c-7.709,0-13.726-4.877-13.726-15.499c0-1.046,0.057-2.038,0.172-2.976c0.073-0.428,0.141-0.857,0.206-1.297l0,0
		c1.168-5.936,5.135-9.506,13.225-11.108c10.475-2.072,14.33-3.417,16.255-5.734v14.28C68.875,58.503,59.243,64.118,52.742,64.118
		 M167.415,41.785c0,16.721-9.632,22.333-16.134,22.333c-7.704,0-13.721-4.876-13.721-15.498c0-8.541,3.723-13.425,13.598-15.379
		c10.479-2.072,14.334-3.417,16.259-5.736L167.415,41.785L167.415,41.785z"/>
</g>
</svg>
